<svg width="16" height="18" viewBox="0 0 16 18" fill="none" xmlns="http://www.w3.org/2000/svg">
<path d="M15.1475 7.8975C15.042 8.00284 14.8991 8.06201 14.75 8.06201C14.6009 8.06201 14.458 8.00284 14.3525 7.8975L8.56251 2.10844V17.25C8.56251 17.3992 8.50324 17.5423 8.39775 17.6477C8.29227 17.7532 8.14919 17.8125 8.00001 17.8125C7.85082 17.8125 7.70775 17.7532 7.60226 17.6477C7.49677 17.5423 7.43751 17.3992 7.43751 17.25V2.10844L1.64751 7.8975C1.54088 7.99686 1.39984 8.05095 1.25411 8.04838C1.10839 8.04581 0.96935 7.98678 0.86629 7.88372C0.763231 7.78066 0.704197 7.64162 0.701626 7.49589C0.699055 7.35017 0.753147 7.20913 0.852507 7.1025L7.60251 0.352501C7.70798 0.247163 7.85094 0.187996 8.00001 0.187996C8.14907 0.187996 8.29204 0.247163 8.39751 0.352501L15.1475 7.1025C15.2528 7.20797 15.312 7.35094 15.312 7.5C15.312 7.64906 15.2528 7.79203 15.1475 7.8975Z" fill="black"/>
</svg>
