<svg width="21" height="11" viewBox="0 0 21 11" fill="none" xmlns="http://www.w3.org/2000/svg">
<path d="M10.5 8.7909L1.77803 0.707555C1.70774 0.641004 1.62429 0.588389 1.53251 0.552756C1.44074 0.517123 1.34245 0.499179 1.24334 0.499964C1.14423 0.500748 1.04627 0.520244 0.955127 0.557324C0.863983 0.594404 0.781464 0.648332 0.712346 0.715986C0.643229 0.783641 0.588884 0.863678 0.552459 0.951468C0.516033 1.03926 0.498249 1.13306 0.500135 1.22744C0.502022 1.32182 0.523542 1.4149 0.56345 1.50131C0.603358 1.58771 0.660861 1.66572 0.732633 1.73082L9.9773 10.2977C10.1172 10.4274 10.3048 10.4999 10.5 10.4999C10.6952 10.4999 10.8828 10.4274 11.0227 10.2977L20.2674 1.73082C20.3391 1.66572 20.3966 1.58771 20.4365 1.50131C20.4765 1.4149 20.498 1.32182 20.4999 1.22744C20.5018 1.13306 20.484 1.03926 20.4475 0.951468C20.4111 0.863677 20.3568 0.78364 20.2877 0.715985C20.2185 0.648331 20.136 0.594403 20.0449 0.557324C19.9537 0.520243 19.8558 0.500747 19.7567 0.499963C19.6576 0.499178 19.5593 0.517122 19.4675 0.552755C19.3757 0.588389 19.2923 0.641003 19.222 0.707554L10.5 8.7909Z" fill="black"/>
</svg>
