<svg width="20" height="11" viewBox="0 0 20 11" fill="none" xmlns="http://www.w3.org/2000/svg">
<path d="M10 2.20904L18.722 10.2924C18.7923 10.3589 18.8757 10.4115 18.9675 10.4472C19.0593 10.4828 19.1576 10.5008 19.2567 10.5C19.3558 10.4992 19.4537 10.4797 19.5449 10.4426C19.636 10.4055 19.7185 10.3516 19.7877 10.284C19.8568 10.2163 19.9111 10.1363 19.9475 10.0485C19.984 9.96068 20.0018 9.86688 19.9999 9.7725C19.998 9.67812 19.9765 9.58504 19.9365 9.49863C19.8966 9.41223 19.8391 9.33422 19.7674 9.26912L10.5227 0.702216C10.3828 0.57255 10.1952 0.5 10 0.5C9.80477 0.5 9.61724 0.57255 9.4773 0.702216L0.232631 9.26912C0.16086 9.33422 0.103357 9.41222 0.0634495 9.49863C0.023542 9.58504 0.00202139 9.67812 0.000135016 9.7725C-0.00175136 9.86688 0.0160328 9.96068 0.0524574 10.0485C0.0888839 10.1363 0.143226 10.2163 0.212345 10.284C0.281463 10.3516 0.363983 10.4055 0.455127 10.4426C0.546272 10.4797 0.644231 10.4992 0.743339 10.5C0.842449 10.5008 0.940734 10.4828 1.03251 10.4472C1.12429 10.4115 1.20774 10.3589 1.27803 10.2924L10 2.20904Z" fill="#ffffff"/>
</svg>
