<svg width="50" height="50" viewBox="0 0 50 50" fill="none" xmlns="http://www.w3.org/2000/svg">
<path d="M25.1772 34.456L25.1743 34.4575C25.1215 34.4851 25.0615 34.5 25 34.5C24.9385 34.5 24.8785 34.4851 24.8257 34.4575L24.8228 34.456C24.6026 34.3426 21.7417 32.8261 18.9436 30.4431C16.1166 28.0356 13.5002 24.8669 13.5 21.4602C13.5019 19.8846 14.1462 18.3711 15.2964 17.2526C16.4471 16.1337 18.01 15.5019 19.6431 15.5C21.7149 15.5001 23.4999 16.3643 24.6042 17.7947L25 18.3073L25.3958 17.7947C26.5001 16.3643 28.2851 15.5001 30.3569 15.5C31.99 15.5019 33.5529 16.1337 34.7036 17.2526C35.8538 18.3712 36.4982 19.8847 36.5 21.4604C36.4997 24.8671 33.8834 28.0356 31.0564 30.4431C28.2583 32.8261 25.3974 34.3426 25.1772 34.456Z" fill="#CD1963" stroke="#CD1963"/>
</svg>
